<svg id="Layer_5" enable-background="new 0 0 64 64" height="512" viewBox="0 0 64 64" width="512" xmlns="http://www.w3.org/2000/svg"><g><path d="m31 38.508v-6.508c0 1.474-.81 2.75-2 3.444v3.064c0 .823-.669 1.492-1.492 1.492h-1.692c-.414-1.161-1.514-2-2.816-2h-2c-1.654 0-3 1.346-3 3s1.346 3 3 3h2c1.302 0 2.402-.839 2.816-2h1.692c1.926 0 3.492-1.566 3.492-3.492z"/><path d="m14.127 55.321 2.551.851-2.126-3.402z"/><path d="m19.519 45.751c-.728-.228-1.386-.605-1.93-1.115l1.411 1.763z"/><path d="m23.498 45.95c-.166.016-.327.05-.498.05h-1.119l-1.643 2.054 1.961 2.942.837-1.338z"/><path d="m14.598 44.099c-.107.021-.214.041-.32.064l.686 5.494.837 1.338 1.961-2.942z"/><path d="m41 5c7.72 0 14 6.28 14 14s-6.28 14-14 14c-4.018 0-7.752-1.692-10.383-4.612-.113.421-.253.833-.417 1.237.387.52.645 1.133.742 1.804 2.84 2.299 6.392 3.571 10.058 3.571 8.822 0 16-7.178 16-16s-7.178-16-16-16c-7.766 0-14.4 5.63-15.739 13.2.654.34 1.271.741 1.836 1.205.796-6.97 6.723-12.405 13.903-12.405z"/><path d="m11 28v-1.721l.684-.228c1.461-.487 2.757-1.322 3.793-2.438l1.734-2.228 1.589 1.215-1.038 1.384c2.182 1.322 4.664 2.016 7.238 2.016h2v2c.553 0 1.08.113 1.56.317.285-.869.44-1.781.44-2.693 0-4.755-3.869-8.624-8.624-8.624h-2.752c-4.755 0-8.624 3.869-8.624 8.624 0 .912.155 1.825.44 2.693.48-.204 1.007-.317 1.56-.317z"/><path d="m31.845 11.259c-1.569 1.852-2.582 4.183-2.795 6.741h1.95v2h-1.627c1.022 1.63 1.624 3.549 1.627 5.61.262.396.54.777.842 1.135l1.381-1.381 1.414 1.414-1.372 1.372c1.885 1.599 4.221 2.579 6.737 2.786v-1.936h2v1.949c2.558-.213 4.888-1.226 6.741-2.795l-1.376-1.376 1.414-1.414 1.376 1.376c1.569-1.852 2.582-4.183 2.795-6.741h-1.952v-2h1.949c-.213-2.558-1.226-4.888-2.795-6.741l-1.376 1.376-1.414-1.414 1.376-1.376c-1.852-1.567-4.182-2.581-6.74-2.793v1.949h-2v-1.949c-2.558.213-4.888 1.226-6.741 2.795l1.376 1.376-1.414 1.414zm8.155 4.925v-5.184h2v5.184c.847.302 1.514.969 1.816 1.816h3.184v2h-3.184c-.414 1.161-1.514 2-2.816 2-1.654 0-3-1.346-3-3 0-1.302.839-2.402 2-2.816z"/><path d="m29 32c0-1.103-.897-2-2-2v4c1.103 0 2-.897 2-2z"/><path d="m25.601 45.249-.468 3.751h1.985l.429-3.429c-.467-.253-.955-.472-1.454-.673-.159.126-.319.245-.492.351z"/><path d="m23.448 52.77-2.127 3.402 2.552-.851z"/><path d="m12.82 51h-3.703l-.527-4.215c-3.432 2.627-5.59 6.747-5.59 11.368v2.847h4v-6h2v6h9v-2.28l-6.127-2.042z"/><path d="m11 34v-4c-1.103 0-2 .897-2 2s.897 2 2 2z"/><path d="m10.883 49h1.985l-.534-4.276c-.652.24-1.28.521-1.88.846z"/><path d="m29.41 46.785-.527 4.215h-3.703l.947 5.679-6.127 2.041v2.28h9v-6h2v6h4v-2.847c0-4.621-2.158-8.741-5.59-11.368z"/><path d="m19 49.803-2.036 3.053 2.036 3.257 2.036-3.256z"/><path d="m22.259 36h.741c.616 0 1.199.127 1.744.331.151-.424.256-.867.256-1.331v-7c-3.065 0-6.015-.86-8.583-2.497-.991.934-2.146 1.675-3.417 2.192v7.305c0 2.019 1.508 3.675 3.454 3.945.369-.813.946-1.508 1.668-2.02-1.217-.189-2.367-.756-3.243-1.632l-.586-.586 1.414-1.414.586.586c.713.713 1.699 1.121 2.707 1.121s1.994-.408 2.707-1.121l.586-.586 1.414 1.414-.586.586c-.264.264-.554.5-.862.707zm-6.259-5c-.552 0-1-.448-1-1s.448-1 1-1 1 .448 1 1-.448 1-1 1zm6 0c-.552 0-1-.448-1-1s.448-1 1-1 1 .448 1 1-.448 1-1 1z"/><path d="m49 42.92c0-2.161-1.759-3.92-3.92-3.92h-.16c-2.161 0-3.92 1.759-3.92 3.92v1.08h2v-1.08c0-1.059.861-1.92 1.92-1.92h.16c1.059 0 1.92.861 1.92 1.92 0 .458-.164.902-.462 1.25l-5.538 6.46v2.37l8 .001-.014-2.001c-.146.002-3.687.002-5.67 0l4.739-5.528c.61-.71.945-1.617.945-2.552z"/><path d="m58 53v-2h2v-2h-2v-10h-2.589l-5.411 9.741v2.259h6v2zm-5.856-4 3.856-6.94v6.94z"/><circle cx="44" cy="58" r="3"/><circle cx="52" cy="58" r="3"/><circle cx="60" cy="58" r="3"/></g></svg>