<svg height="512" viewBox="0 0 256 256" width="512" xmlns="http://www.w3.org/2000/svg"><g fill="#ebe7f2"><path d="m128.469 161.745a2.5 2.5 0 0 1 -2.5-2.5v-47.245a2.5 2.5 0 0 1 5 0v47.245a2.5 2.5 0 0 1 -2.5 2.5z"/><path d="m128 72.75a2.5 2.5 0 0 1 -2.5-2.5v-37.928a2.5 2.5 0 1 1 5 0v37.928a2.5 2.5 0 0 1 -2.5 2.5z"/><path d="m128 161.745a20.856 20.856 0 0 1 -20.833-20.833v-90.256a20.833 20.833 0 1 1 41.666 0v90.256a20.856 20.856 0 0 1 -20.833 20.833zm0-126.923a15.852 15.852 0 0 0 -15.833 15.834v90.256a15.833 15.833 0 1 0 31.666 0v-90.256a15.852 15.852 0 0 0 -15.833-15.834z"/></g><path d="m128 103.676c-14.2 0-25.379-12.1-25.849-12.617a2.5 2.5 0 0 1 0-3.366c.47-.515 11.653-12.617 25.849-12.617s25.379 12.1 25.849 12.617a2.5 2.5 0 0 1 0 3.366c-.47.515-11.649 12.617-25.849 12.617zm-20.421-14.3c3.391 3.077 11.371 9.3 20.421 9.3 9.083 0 17.038-6.217 20.421-9.3-3.393-3.078-11.372-9.3-20.421-9.3-9.083 0-17.038 6.217-20.421 9.297z" fill="#65c1d6"/><path d="m128 98.45a9.074 9.074 0 1 1 9.074-9.074 9.085 9.085 0 0 1 -9.074 9.074zm0-13.15a4.074 4.074 0 1 0 4.074 4.074 4.078 4.078 0 0 0 -4.074-4.074z" fill="#65c1d6"/><path d="m128 161.745a34.773 34.773 0 0 0 34.734-34.734v-62.454a34.734 34.734 0 1 0 -69.468 0v62.454a34.773 34.773 0 0 0 34.734 34.734zm-29.734-97.188a29.734 29.734 0 1 1 59.468 0v62.454a29.734 29.734 0 0 1 -59.468 0z" fill="#846f75"/><path d="m183.067 95.377a7.508 7.508 0 0 0 -7.5 7.5v26.107a47.567 47.567 0 0 1 -95.134 0v-26.107a7.5 7.5 0 0 0 -15 0v26.107a62.92 62.92 0 0 0 55.067 62.1v20.094h-16.676a7.5 7.5 0 0 0 0 15h48.352a7.5 7.5 0 0 0 0-15h-16.676v-20.094a62.921 62.921 0 0 0 55.067-62.1v-26.107a7.508 7.508 0 0 0 -7.5-7.5zm2.5 33.607a57.87 57.87 0 0 1 -52.774 57.35 2.5 2.5 0 0 0 -2.293 2.492v24.852a2.5 2.5 0 0 0 2.5 2.5h19.176a2.5 2.5 0 0 1 0 5h-48.352a2.5 2.5 0 0 1 0-5h19.176a2.5 2.5 0 0 0 2.5-2.5v-24.852a2.5 2.5 0 0 0 -2.293-2.492 57.87 57.87 0 0 1 -52.774-57.35v-26.107a2.5 2.5 0 0 1 5 0v26.107a52.567 52.567 0 0 0 105.134 0v-26.107a2.5 2.5 0 0 1 5 0z" fill="#846f75"/><path d="m109.521 110.646a2.493 2.493 0 0 0 1.768-.732l37.895-37.9a2.5 2.5 0 0 0 -3.535-3.536l-37.9 37.9a2.5 2.5 0 0 0 1.768 4.268z" fill="#846f75"/></svg>