<svg height="512" viewBox="0 0 64 64" width="512" xmlns="http://www.w3.org/2000/svg"><g id="Processor_security" data-name="Processor security"><circle cx="32" cy="8" r="2"/><circle cx="48" cy="7" r="2"/><circle cx="18" cy="5" r="2"/><circle cx="40" cy="59" r="2"/><circle cx="49" cy="53" r="2"/><circle cx="18" cy="59" r="2"/><circle cx="55" cy="19" r="2" transform="matrix(.963 -.27 .27 .963 -3.086 15.529)"/><circle cx="59" cy="44" r="2" transform="matrix(.963 -.27 .27 .963 -9.677 17.532)"/><circle cx="59" cy="28" r="2" transform="matrix(.963 -.27 .27 .963 -5.364 16.94)"/><circle cx="9" cy="19" r="2" transform="matrix(.27 -.963 .963 .27 -11.723 22.545)"/><path d="m5.079 32a2 2 0 1 0 1.371.623 2 2 0 0 0 -1.371-.623z"/><path d="m32 33h-.04a1 1 0 1 0 1.04.961 1 1 0 0 0 -1-.961z"/><path d="m36 30h-8a1 1 0 0 0 -1 1v8a1 1 0 0 0 1 1h8a1 1 0 0 0 1-1v-8a1 1 0 0 0 -1-1zm-1.8 6.036a2.974 2.974 0 0 1 -1.2.779v2.185h-2v-2.178a2.993 2.993 0 1 1 3.2-.786z"/><path d="m35 27a3 3 0 0 0 -6 0v1h6z"/><path d="m44 41v-18a3 3 0 0 0 -3-3h-18a3 3 0 0 0 -3 3v18a3 3 0 0 0 3 3h18a3 3 0 0 0 3-3zm-5-2a3 3 0 0 1 -3 3h-8a3 3 0 0 1 -3-3v-8a3 3 0 0 1 2-2.816v-1.184a5 5 0 0 1 10 0v1.184a3 3 0 0 1 2 2.816z"/><path d="m32 7a1 1 0 1 0 1 1 1 1 0 0 0 -1-1z"/><path d="m35 15h2v3h-2z"/><path d="m48 6a1 1 0 1 0 1 1 1 1 0 0 0 -1-1z"/><path d="m27 15h2v3h-2z"/><path d="m35 46h2v3h-2z"/><path d="m27 46h2v6h-2z"/><path d="m18 58a1 1 0 1 0 1 1 1 1 0 0 0 -1-1z"/><path d="m55 18h-.04a1 1 0 0 0 -.639 1.734 1 1 0 0 0 .719.266 1 1 0 0 0 .96-1.039 1 1 0 0 0 -1-.961z"/><path d="m46 35h5v2h-5z"/><path d="m46 27h3v2h-3z"/><path d="m9 35h9v2h-9z"/><circle cx="8" cy="48" r="2" transform="matrix(.27 -.963 .963 .27 -40.38 42.765)"/><path d="m15 31h3v2h-3z"/><path d="m27 11h2v2h-2z"/><path d="m53 35h2v2h-2z"/><path d="m35 51h2v2h-2z"/><path d="m27 54h2v2h-2z"/><path d="m11 31h2v2h-2z"/><path d="m35 11h2v2h-2z"/><path d="m51 27h2v2h-2z"/><path d="m46 17h2v2h-2z"/><path d="m16 17h2v2h-2z"/><path d="m46 45h2v2h-2z"/><path d="m16 45h2v2h-2z"/><path d="m44.566 9.02-5.566 5.566v3.414h2v-2.586l4.98-4.98a3.991 3.991 0 0 1 -1.414-1.414z"/><path d="m31 11.859v6.141h2v-6.141a3.617 3.617 0 0 1 -2 0z"/><path d="m21.434 7.02a3.991 3.991 0 0 1 -1.414 1.414l2.98 2.98v6.586h2v-7.414z"/><path d="m51.566 21.02-1.98 1.98h-3.586v2h4.414l2.566-2.566a3.991 3.991 0 0 1 -1.414-1.414z"/><path d="m50.764 31h-4.764v2h5.236l4.764-2.381a3.968 3.968 0 0 1 -.908-1.783z"/><path d="m56.98 40.566-1.566-1.566h-9.414v2h8.586l.98.98a3.991 3.991 0 0 1 1.414-1.414z"/><path d="m45.141 52h-4.141v-6h-2v8h6.141a3.617 3.617 0 0 1 0-2z"/><path d="m37.252 56.105-4.252-2.659v-7.446h-2v8.554l5.2 3.253a3.985 3.985 0 0 1 1.052-1.702z"/><path d="m25 46h-2v6.586l-2.98 2.98a3.991 3.991 0 0 1 1.414 1.414l3.566-3.566z"/><path d="m12.465 39-3.434 5.151a3.981 3.981 0 0 1 1.749.981l2.755-4.132h4.465v-2z"/><path d="m11.638 27-4.413 3.677a4 4 0 0 1 1.319 1.505l3.818-3.182h5.638v-2z"/><path d="m14.414 23-1.98-1.98a3.991 3.991 0 0 1 -1.414 1.414l2.566 2.566h4.414v-2z"/></g></svg>