<svg height="512" viewBox="0 0 74 74" width="512" xmlns="http://www.w3.org/2000/svg"><g id="line_icons" data-name="line icons"><path d="m59.167 35.755a1 1 0 0 1 -1-1v-12.041a17.937 17.937 0 1 0 -35.873 0v12.041a1 1 0 0 1 -2 0v-12.041a19.937 19.937 0 1 1 39.873 0v12.041a1 1 0 0 1 -1 1z"/><path d="m62 72.771h-43.534a5.34 5.34 0 0 1 -5.334-5.334v-28.347a5.339 5.339 0 0 1 5.334-5.334h43.534a5.339 5.339 0 0 1 5.334 5.334v28.347a5.34 5.34 0 0 1 -5.334 5.334zm-43.534-37.015a3.338 3.338 0 0 0 -3.334 3.334v28.347a3.338 3.338 0 0 0 3.334 3.334h43.534a3.338 3.338 0 0 0 3.334-3.334v-28.347a3.338 3.338 0 0 0 -3.334-3.334z"/><path d="m19.778 48.714h-10.751a1 1 0 0 1 0-2h10.237l2.163-3.027a1 1 0 0 1 .813-.419h5.247a1 1 0 0 1 0 2h-4.732l-2.163 3.032a1 1 0 0 1 -.814.414z"/><path d="m29.867 47.651a3.38 3.38 0 1 1 3.379-3.38 3.384 3.384 0 0 1 -3.379 3.38zm0-4.759a1.38 1.38 0 1 0 1.379 1.379 1.381 1.381 0 0 0 -1.379-1.379z"/><path d="m27.487 63.258h-5.247a1 1 0 0 1 -.813-.418l-2.163-3.028h-10.237a1 1 0 0 1 0-2h10.751a1 1 0 0 1 .814.419l2.163 3.027h4.732a1 1 0 1 1 0 2z"/><path d="m29.867 65.635a3.38 3.38 0 1 1 3.379-3.38 3.384 3.384 0 0 1 -3.379 3.38zm0-4.759a1.38 1.38 0 1 0 1.379 1.379 1.381 1.381 0 0 0 -1.379-1.379z"/><path d="m31.337 54.267h-22.31a1 1 0 0 1 0-2h22.31a1 1 0 1 1 0 2z"/><path d="m33.716 56.643a3.38 3.38 0 1 1 3.38-3.38 3.384 3.384 0 0 1 -3.38 3.38zm0-4.759a1.38 1.38 0 1 0 1.38 1.379 1.38 1.38 0 0 0 -1.38-1.379z"/><path d="m71.434 48.714h-10.751a1 1 0 0 1 -.814-.419l-2.163-3.027h-4.733a1 1 0 0 1 0-2h5.248a1 1 0 0 1 .813.419l2.166 3.027h10.234a1 1 0 0 1 0 2z"/><path d="m50.594 47.651a3.38 3.38 0 1 1 3.379-3.38 3.383 3.383 0 0 1 -3.379 3.38zm0-4.759a1.38 1.38 0 1 0 1.379 1.379 1.38 1.38 0 0 0 -1.379-1.379z"/><path d="m58.221 63.258h-5.248a1 1 0 0 1 0-2h4.733l2.163-3.027a1 1 0 0 1 .814-.419h10.751a1 1 0 0 1 0 2h-10.234l-2.166 3.028a1 1 0 0 1 -.813.418z"/><path d="m50.594 65.635a3.38 3.38 0 1 1 3.379-3.38 3.383 3.383 0 0 1 -3.379 3.38zm0-4.759a1.38 1.38 0 1 0 1.379 1.379 1.38 1.38 0 0 0 -1.379-1.379z"/><path d="m71.434 54.267h-22.31a1 1 0 0 1 0-2h22.31a1 1 0 0 1 0 2z"/><path d="m46.745 56.643a3.38 3.38 0 1 1 3.379-3.38 3.385 3.385 0 0 1 -3.379 3.38zm0-4.759a1.38 1.38 0 1 0 1.379 1.379 1.381 1.381 0 0 0 -1.379-1.379z"/></g></svg>