<?xml version="1.0" encoding="UTF-8" standalone="no"?>
<svg
   xmlns:dc="http://purl.org/dc/elements/1.1/"
   xmlns:cc="http://creativecommons.org/ns#"
   xmlns:rdf="http://www.w3.org/1999/02/22-rdf-syntax-ns#"
   xmlns:svg="http://www.w3.org/2000/svg"
   xmlns="http://www.w3.org/2000/svg"
   xmlns:xlink="http://www.w3.org/1999/xlink"
   xmlns:sodipodi="http://sodipodi.sourceforge.net/DTD/sodipodi-0.dtd"
   xmlns:inkscape="http://www.inkscape.org/namespaces/inkscape"
   width="210mm"
   height="297mm"
   viewBox="0 0 210 297"
   version="1.1"
   id="svg1835"
   inkscape:version="1.0.1 (3bc2e813f5, 2020-09-07)"
   sodipodi:docname="no-wake-word.svg">
  <defs
     id="defs1829">
    <linearGradient
       inkscape:collect="always"
       id="linearGradient2747">
      <stop
         style="stop-color:#ff2e00;stop-opacity:0.78097732"
         offset="0"
         id="stop2743" />
      <stop
         style="stop-color:#ffbc00;stop-opacity:0.7602074"
         offset="1"
         id="stop2745" />
    </linearGradient>
    <linearGradient
       inkscape:collect="always"
       id="linearGradient2741">
      <stop
         style="stop-color:#ff2e00;stop-opacity:0.78097732"
         offset="0"
         id="stop2737" />
      <stop
         style="stop-color:#ffbc00;stop-opacity:0.7602074"
         offset="1"
         id="stop2739" />
    </linearGradient>
    <linearGradient
       inkscape:collect="always"
       id="linearGradient2729">
      <stop
         style="stop-color:#ff2e00;stop-opacity:0.78097732"
         offset="0"
         id="stop2725" />
      <stop
         style="stop-color:#ffbc00;stop-opacity:0.7602074"
         offset="1"
         id="stop2727" />
    </linearGradient>
    <linearGradient
       inkscape:collect="always"
       xlink:href="#linearGradient2729"
       id="linearGradient2731"
       x1="205.21388"
       y1="13.076816"
       x2="12.948003"
       y2="275.15338"
       gradientUnits="userSpaceOnUse" />
    <linearGradient
       inkscape:collect="always"
       xlink:href="#linearGradient2747"
       id="linearGradient2733"
       x1="205.21388"
       y1="13.076816"
       x2="12.948003"
       y2="275.15338"
       gradientUnits="userSpaceOnUse" />
    <linearGradient
       inkscape:collect="always"
       xlink:href="#linearGradient2741"
       id="linearGradient2735"
       x1="205.21388"
       y1="13.076816"
       x2="12.948003"
       y2="275.15338"
       gradientUnits="userSpaceOnUse" />
  </defs>
  <sodipodi:namedview
     id="base"
     pagecolor="#ffffff"
     bordercolor="#666666"
     borderopacity="1.0"
     inkscape:pageopacity="0.0"
     inkscape:pageshadow="2"
     inkscape:zoom="0.35"
     inkscape:cx="-55.714286"
     inkscape:cy="585.71429"
     inkscape:document-units="mm"
     inkscape:current-layer="layer1"
     inkscape:document-rotation="0"
     showgrid="false"
     inkscape:window-width="1920"
     inkscape:window-height="1059"
     inkscape:window-x="-5"
     inkscape:window-y="18"
     inkscape:window-maximized="0" />
  <metadata
     id="metadata1832">
    <rdf:RDF>
      <cc:Work
         rdf:about="">
        <dc:format>image/svg+xml</dc:format>
        <dc:type
           rdf:resource="http://purl.org/dc/dcmitype/StillImage" />
        <dc:title></dc:title>
      </cc:Work>
    </rdf:RDF>
  </metadata>
  <g
     inkscape:label="Layer 1"
     inkscape:groupmode="layer"
     id="layer1">
    <path
       style="fill:url(#linearGradient2731);fill-opacity:1;fill-rule:nonzero;stroke:none;stroke-width:0.264583"
       id="path2696"
       d="m 205.21388,13.076816 c -5.27309,2.449775 -10.27599,5.473666 -15.16107,8.620416 17.19274,-9.721871 7.5668,-4.450964 3.52619,-2.317633 -1.9852,1.028689 -4.16333,1.561949 -6.33101,2.045184 -2.5242,0.641252 -5.11249,0.88638 -7.70491,1.028102 -3.10064,0.128849 -6.2048,0.106778 -9.30738,0.114572 -3.2515,-0.0098 -6.50296,-0.0098 -9.75445,0.0063 -3.29875,0.01715 -6.59737,-0.01931 -9.89605,-0.03144 -1.67325,-0.01283 -3.3465,-0.02315 -5.01977,-0.03224 -1.0784,-0.0053 -2.15682,-5.3e-4 -3.23518,-0.01206 -1.1473,-0.01606 -2.18784,-0.429467 -3.21692,-0.892181 -5.37533,-2.600415 -2.48854,-1.128188 -11.52123,5.456172 3.03376,3.122435 6.20845,6.103373 9.22193,9.24643 3.17546,3.179305 5.81682,6.802181 8.15837,10.620656 1.90772,2.943219 3.19371,6.201391 4.60058,9.396126 1.56944,3.337685 2.3294,6.954089 3.46639,10.438876 0.99605,2.759581 1.58344,5.637972 2.3435,8.465876 0.49969,2.742893 1.53436,5.282274 2.63638,7.82194 1.01349,2.257057 1.95382,4.547564 2.56863,6.947204 0.0177,0.37666 0.3578,1.64748 -0.17673,1.94424 -0.20131,0.11177 -0.88237,0.18676 -0.68786,0.0635 8.20203,-5.19755 12.30853,-6.107008 7.65893,-4.94034 -4.01465,0.43675 -8.06838,0.36027 -12.10142,0.34888 -3.62399,-0.0342 -7.24811,-0.0405 -10.87219,-0.0592 -5.05213,0.0238 -10.10408,0.0567 -15.15632,0.0566 -4.62014,0.004 -9.24011,-0.0333 -13.86012,-0.0608 -1.65521,-0.0118 -3.31036,-0.0271 -4.9656,-0.0297 0,0 -9.02753,6.5589 -9.02753,6.5589 v 0 c 1.68255,-0.003 3.36501,-0.0181 5.04753,-0.0298 4.67589,-0.0276 9.35174,-0.0648 14.02778,-0.0611 4.99391,2.7e-4 9.98753,0.031 14.98128,0.0681 3.64803,-0.005 7.29608,0.0157 10.94413,0.007 4.02526,0.003 8.05391,0.0662 12.07615,-0.12056 5.14099,-0.30577 1.8748,0.0751 11.67872,-5.8883 0.24425,-0.14857 0.3128,-0.48582 0.40291,-0.75713 0.25608,-0.77107 -0.0389,-1.677667 -0.15824,-2.432862 -0.69887,-2.426533 -1.66384,-4.759391 -2.69182,-7.063801 -1.08832,-2.485728 -2.0458,-4.993219 -2.55705,-7.673673 -0.74766,-2.845736 -1.40085,-5.724096 -2.43403,-8.484856 -1.13758,-3.520774 -1.9377,-7.16288 -3.53602,-10.523599 -1.40977,-3.255258 -2.67624,-6.577671 -4.67837,-9.53558 -2.43373,-3.855694 -5.14451,-7.520705 -8.38444,-10.7501 -2.96054,-3.096909 -6.05998,-6.066848 -8.87454,-9.299435 -13.52078,7.45826 -12.47157,3.752572 -7.49336,6.491565 1.10865,0.488392 2.19542,1.104773 3.42709,1.204013 1.09058,0.166532 2.19782,0.05877 3.29859,0.08324 1.70283,-0.0092 3.40564,-0.01958 5.10845,-0.03228 3.32544,-0.0118 6.65084,-0.04731 9.97634,-0.02756 3.23747,0.01971 6.47496,0.02683 9.71248,0.02469 3.10529,0.0091 6.21089,0.0024 9.31568,-0.05932 2.61697,-0.08985 5.24516,-0.235471 7.80068,-0.853691 2.19309,-0.499711 4.42779,-0.881036 6.49273,-1.81464 5.32507,-2.656165 10.37475,-5.855353 15.59201,-8.699489 3.29434,-2.018983 8.44668,-4.890786 -6.90522,3.899032 -0.22269,0.127505 0.70833,-0.459253 1.96273,-1.093663 0.28773,-0.145518 0.58148,-0.278815 0.87222,-0.418222 0,0 8.81043,-6.962433 8.81043,-6.962433 z" />
    <path
       style="fill:url(#linearGradient2733);fill-opacity:1;fill-rule:nonzero;stroke:none;stroke-width:0.264583"
       id="path2696-7"
       d="m 159.0837,106.65098 c -5.27309,2.44977 -10.27599,5.47366 -15.16107,8.62041 17.19274,-9.72187 7.5668,-4.45096 3.52619,-2.31763 -1.9852,1.02869 -4.16333,1.56195 -6.33101,2.04519 -2.5242,0.64125 -5.11249,0.88638 -7.70491,1.0281 -3.10064,0.12885 -6.20481,0.10678 -9.30739,0.11457 -3.2515,-0.01 -6.50296,-0.01 -9.75445,0.006 -3.29874,0.0171 -6.59736,-0.0193 -9.89604,-0.0314 -1.67325,-0.0128 -3.3465,-0.0231 -5.019775,-0.0322 -1.0784,-0.005 -2.15682,-5.3e-4 -3.23518,-0.0121 -1.1473,-0.0161 -2.18784,-0.42947 -3.21692,-0.89218 -5.37533,-2.60042 -2.48854,-1.12819 -11.52123,5.45617 3.03376,3.12244 6.20845,6.10337 9.22193,9.24643 3.17546,3.17931 5.81682,6.80218 8.15837,10.62066 1.907725,2.94322 3.193715,6.20139 4.600585,9.39612 1.56944,3.33769 2.3294,6.95409 3.46639,10.43888 0.99605,2.75958 1.58344,5.63797 2.3435,8.46588 0.49969,2.74289 1.53436,5.28227 2.63638,7.82194 1.01348,2.25706 1.95381,4.54756 2.56862,6.9472 0.0177,0.37666 0.3578,1.64748 -0.17673,1.94424 -0.20131,0.11177 -0.88237,0.18676 -0.68786,0.0635 8.20203,-5.19755 12.30853,-6.107 7.65893,-4.94034 -4.01465,0.43675 -8.06838,0.36027 -12.10141,0.34888 -3.62399,-0.0342 -7.24811,-0.0405 -10.872195,-0.0592 -5.05213,0.0238 -10.10408,0.0567 -15.15632,0.0566 -4.62014,0.004 -9.24011,-0.0333 -13.86013,-0.0608 -1.6552,-0.0118 -3.31035,-0.0271 -4.96559,-0.0297 0,0 -9.02753,6.5589 -9.02753,6.5589 v 0 c 1.682552,-0.003 3.365013,-0.0181 5.047525,-0.0298 4.675895,-0.0276 9.351745,-0.0648 14.027785,-0.0611 4.99391,2.7e-4 9.98753,0.031 14.98128,0.0681 3.64803,-0.005 7.29608,0.0157 10.944135,0.007 4.02526,0.003 8.05391,0.0662 12.07614,-0.12056 5.14099,-0.30577 1.8748,0.0751 11.67872,-5.8883 0.24425,-0.14857 0.3128,-0.48582 0.40291,-0.75713 0.25608,-0.77107 -0.0389,-1.67767 -0.15824,-2.43286 -0.69887,-2.42654 -1.66384,-4.75939 -2.69182,-7.0638 -1.08832,-2.48574 -2.0458,-4.99323 -2.55705,-7.67368 -0.74766,-2.84573 -1.40085,-5.7241 -2.43403,-8.48485 -1.13758,-3.52077 -1.9377,-7.16287 -3.53602,-10.52359 -1.40976,-3.25527 -2.67623,-6.57768 -4.67836,-9.53559 -2.43373,-3.8557 -5.14451,-7.52071 -8.384445,-10.7501 -2.96054,-3.09691 -6.05998,-6.06685 -8.87454,-9.29944 -13.52078,7.45826 -12.47157,3.75257 -7.49336,6.49157 1.10865,0.48839 2.19542,1.10477 3.42709,1.20401 1.09058,0.16653 2.19782,0.0588 3.29859,0.0832 1.70283,-0.009 3.40564,-0.0196 5.10845,-0.0323 3.32544,-0.0118 6.650845,-0.0473 9.976345,-0.0276 3.23747,0.0197 6.47496,0.0268 9.71247,0.0247 3.10529,0.009 6.21089,0.002 9.31568,-0.0593 2.61697,-0.0899 5.24517,-0.23547 7.80069,-0.85369 2.19309,-0.49971 4.42779,-0.88104 6.49273,-1.81464 5.32507,-2.65617 10.37475,-5.85535 15.59201,-8.69949 3.29434,-2.01898 8.44668,-4.89079 -6.90522,3.89903 -0.22269,0.12751 0.70833,-0.45925 1.96273,-1.09366 0.28773,-0.14552 0.58148,-0.27882 0.87222,-0.41822 0,0 8.81043,-6.96244 8.81043,-6.96244 z" />
    <path
       style="fill:url(#linearGradient2735);fill-opacity:1;fill-rule:nonzero;stroke:none;stroke-width:0.264583"
       id="path2696-5"
       d="m 107.73531,200.90815 c -5.27309,2.44977 -10.275989,5.47366 -15.161069,8.62041 17.192739,-9.72187 7.566799,-4.45096 3.52619,-2.31763 -1.9852,1.02869 -4.16333,1.56195 -6.33101,2.04518 -2.5242,0.64125 -5.11249,0.88638 -7.70491,1.0281 -3.10064,0.12885 -6.2048,0.10678 -9.30738,0.11458 -3.2515,-0.01 -6.502955,-0.01 -9.754446,0.006 -3.298751,0.0171 -6.59737,-0.0193 -9.896049,-0.0314 -1.673252,-0.0128 -3.346501,-0.0232 -5.019771,-0.0322 -1.078402,-0.005 -2.156819,-5.3e-4 -3.235182,-0.0121 -1.147299,-0.0161 -2.187839,-0.42947 -3.216918,-0.89218 -5.37533,-2.60042 -2.488541,-1.12819 -11.521231,5.45617 3.033761,3.12243 6.208451,6.10337 9.221931,9.24643 3.17546,3.1793 5.816819,6.80218 8.158369,10.62065 1.90772,2.94322 3.193711,6.2014 4.60058,9.39613 1.56944,3.33769 2.3294,6.95409 3.466391,10.43888 0.99605,2.75958 1.583439,5.63797 2.343499,8.46587 0.49969,2.7429 1.534361,5.28228 2.63638,7.82194 1.013492,2.25706 1.953821,4.54757 2.56863,6.94721 0.0177,0.37666 0.357802,1.64748 -0.176731,1.94424 -0.201308,0.11177 -0.882369,0.18676 -0.687858,0.0635 8.202026,-5.19755 12.308526,-6.10701 7.658926,-4.94034 -4.014645,0.43675 -8.068377,0.36027 -12.101415,0.34888 -3.62399,-0.0342 -7.248112,-0.0405 -10.872192,-0.0592 -5.052129,0.0238 -10.104081,0.0567 -15.156321,0.0566 -4.620139,0.004 -9.240109,-0.0333 -13.860123,-0.0608 -1.655202,-0.0118 -3.310353,-0.0271 -4.965597,-0.0297 0,0 -9.0275275,6.55889 -9.0275275,6.55889 v 0 c 1.682552,-0.003 3.365013,-0.0181 5.047525,-0.0298 4.6758935,-0.0276 9.3517475,-0.0648 14.0277835,-0.0611 4.99391,2.7e-4 9.98753,0.031 14.981281,0.0681 3.64803,-0.005 7.296078,0.0157 10.94413,0.007 4.025259,0.003 8.053908,0.0662 12.076149,-0.12056 5.140992,-0.30577 1.874801,0.0751 11.678717,-5.88829 0.24425,-0.14858 0.3128,-0.48582 0.40291,-0.75714 0.25608,-0.77107 -0.0389,-1.67766 -0.15824,-2.43286 -0.69887,-2.42653 -1.66384,-4.75939 -2.69182,-7.0638 -1.08832,-2.48573 -2.045796,-4.99322 -2.557047,-7.67367 -0.74766,-2.84574 -1.40085,-5.7241 -2.43403,-8.48486 -1.137578,-3.52076 -1.937699,-7.16287 -3.536018,-10.52359 -1.409772,-3.25526 -2.676242,-6.57768 -4.678371,-9.53559 -2.43373,-3.85569 -5.14451,-7.5207 -8.384442,-10.7501 -2.960539,-3.0969 -6.059979,-6.06684 -8.874537,-9.29943 -13.520782,7.45826 -12.471572,3.75257 -7.493363,6.49156 1.108652,0.4884 2.195423,1.10478 3.427092,1.20402 1.090578,0.16653 2.19782,0.0588 3.29859,0.0832 1.702829,-0.009 3.40564,-0.0196 5.108451,-0.0323 3.325439,-0.0118 6.650839,-0.0473 9.976339,-0.0276 3.237471,0.0197 6.47496,0.0268 9.712478,0.0247 3.105291,0.009 6.210888,0.002 9.315678,-0.0593 2.61697,-0.0899 5.24516,-0.23547 7.80068,-0.85369 2.19309,-0.49971 4.42779,-0.88104 6.49273,-1.81464 5.32507,-2.65617 10.37475,-5.85536 15.592009,-8.69949 3.29434,-2.01899 8.44668,-4.89079 -6.905219,3.89903 -0.22269,0.1275 0.70833,-0.45925 1.96273,-1.09366 0.28773,-0.14552 0.58148,-0.27882 0.87222,-0.41823 0,0 8.810429,-6.96243 8.810429,-6.96243 z" />
    <path
       style="fill:#aa0000;fill-opacity:0.69836891;fill-rule:nonzero;stroke:#ffaaaa;stroke-width:0.264583;stroke-opacity:1;opacity:0.69952789"
       id="path3283"
       d="m 18.059441,63.544372 c 0.531801,2.458382 1.255271,4.875504 2.171374,7.217659 0.592245,1.904167 1.228528,3.748289 2.279009,5.451279 1.026532,1.518965 2.296738,2.847877 3.640799,4.0859 1.754679,1.528127 3.756302,2.722361 5.766969,3.876781 1.515271,0.954574 3.201736,1.422209 4.921978,1.830985 0,0 9.208719,-6.383081 9.208719,-6.383081 v 0 C 44.40179,79.272169 42.744548,78.939646 41.263982,78.09231 39.30488,77.010076 37.365469,75.868431 35.649958,74.421467 c -1.273035,-1.162343 -2.464477,-2.428428 -3.462256,-3.838001 -1.025297,-1.634161 -1.604973,-3.433135 -2.217269,-5.253529 -0.894434,-2.254401 -1.668605,-4.587809 -1.96951,-7.002968 0,0 -9.941482,5.217403 -9.941482,5.217403 z" />
    <path
       style="fill:#aa0000;fill-opacity:0.69929832;fill-rule:nonzero;stroke:#ff0000;stroke-width:0.264583;stroke-opacity:1;opacity:0.69658235"
       id="path3285"
       d="m 36.71322,62.564263 c -1.732946,1.816981 -3.411841,3.688707 -4.772382,5.804202 -0.972407,1.596832 -2.126043,3.067484 -3.215873,4.583049 -0.95959,1.158541 -1.860068,2.360086 -2.799554,3.534563 -0.629876,1.112197 -1.262929,2.192401 -2.070931,3.189065 -0.88741,0.997175 -1.704549,2.087854 -2.928056,2.672496 17.214075,-8.641432 9.875028,-5.606413 5.829639,-3.944956 -1.180527,0.58013 -2.420311,1.006263 -3.709652,1.258456 -0.904467,0.14623 -1.816491,0.136633 -2.720001,0.286885 -0.867852,0.169177 -1.747645,0.241713 -2.63041,0.258069 -0.65787,-0.156622 -0.333137,-0.05091 -0.97278,-0.321479 0,0 -9.3925044,6.179468 -9.3925044,6.179468 v 0 c 0.744379,0.422775 0.3635047,0.226639 1.1427904,0.588084 0.9210302,0.314195 1.887441,0.180189 2.846169,0.0672 0.910512,-0.148804 1.789503,-0.353005 2.722784,-0.311875 1.360439,-0.141949 2.68563,-0.462547 3.936779,-1.029041 4.665752,-2.406171 9.370984,-1.735712 13.408923,-7.115157 1.043569,-0.89409 1.948801,-1.938374 2.781863,-3.029542 0.728824,-1.034611 1.290627,-2.170825 2.072238,-3.167772 0.916689,-1.194303 1.884415,-2.348412 2.761305,-3.572748 1.073034,-1.51498 2.189213,-2.999208 3.154461,-4.58801 1.452025,-2.045187 3.150256,-3.889026 4.912122,-5.670793 0,0 -10.35693,4.329837 -10.35693,4.329836 z" />
    <path
       style="opacity:0.699528;fill:#aa0000;fill-opacity:0.698369;fill-rule:nonzero;stroke:#ffaaaa;stroke-width:0.264583;stroke-opacity:1"
       id="path3283-2"
       d="m 175.12519,116.77272 c 0.5318,2.45839 1.25527,4.87551 2.17137,7.21766 0.59225,1.90417 1.22853,3.74829 2.27901,5.45128 1.02653,1.51897 2.29674,2.84788 3.6408,4.0859 1.75468,1.52813 3.7563,2.72236 5.76697,3.87678 1.51527,0.95458 3.20173,1.42221 4.92198,1.83099 0,0 9.20871,-6.38308 9.20871,-6.38308 v 0 c -1.64649,-0.35173 -3.30374,-0.68425 -4.7843,-1.53159 -1.95911,-1.08223 -3.89852,-2.22388 -5.61403,-3.67084 -1.27303,-1.16234 -2.46447,-2.42843 -3.46225,-3.838 -1.0253,-1.63416 -1.60498,-3.43314 -2.21727,-5.25353 -0.89444,-2.2544 -1.66861,-4.58781 -1.96951,-7.00297 0,0 -9.94148,5.2174 -9.94148,5.2174 z" />
    <path
       style="opacity:0.696582;fill:#aa0000;fill-opacity:0.699298;fill-rule:nonzero;stroke:#ff0000;stroke-width:0.264583;stroke-opacity:1"
       id="path3285-9"
       d="m 193.77896,115.79261 c -1.73294,1.81699 -3.41184,3.68871 -4.77238,5.80421 -0.9724,1.59683 -2.12604,3.06748 -3.21587,4.58305 -0.95959,1.15854 -1.86007,2.36008 -2.79955,3.53456 -0.62988,1.1122 -1.26293,2.1924 -2.07093,3.18906 -0.88741,0.99718 -1.70455,2.08786 -2.92806,2.6725 17.21407,-8.64143 9.87503,-5.60641 5.82964,-3.94496 -1.18053,0.58013 -2.42031,1.00627 -3.70965,1.25846 -0.90447,0.14623 -1.8165,0.13663 -2.72001,0.28688 -0.86785,0.16918 -1.74764,0.24172 -2.63041,0.25807 -0.65787,-0.15662 -0.33313,-0.0509 -0.97278,-0.32148 0,0 -9.3925,6.17947 -9.3925,6.17947 v 0 c 0.74438,0.42278 0.3635,0.22664 1.14279,0.58809 0.92103,0.31419 1.88744,0.18018 2.84617,0.0672 0.91051,-0.14881 1.7895,-0.35301 2.72278,-0.31188 1.36044,-0.14195 2.68563,-0.46255 3.93678,-1.02904 4.66575,-2.40617 9.37099,-1.73571 13.40893,-7.11516 1.04357,-0.89409 1.9488,-1.93837 2.78186,-3.02954 0.72882,-1.03461 1.29062,-2.17082 2.07224,-3.16777 0.91669,-1.1943 1.88441,-2.34841 2.7613,-3.57275 1.07304,-1.51498 2.18921,-2.99921 3.15446,-4.58801 1.45203,-2.04519 3.15026,-3.88903 4.91213,-5.67079 0,0 -10.35694,4.32983 -10.35694,4.32983 z" />
    <path
       style="opacity:0.699528;fill:#aa0000;fill-opacity:0.698369;fill-rule:nonzero;stroke:#ffaaaa;stroke-width:0.264583;stroke-opacity:1"
       id="path3283-2-1"
       d="m 45.516255,158.43359 c 0.5318,2.45839 1.25527,4.87551 2.17137,7.21766 0.59225,1.90417 1.22853,3.74829 2.27901,5.45128 1.02653,1.51897 2.29674,2.84788 3.6408,4.0859 1.75468,1.52813 3.7563,2.72236 5.76697,3.87678 1.51527,0.95458 3.20173,1.42221 4.92198,1.83099 0,0 9.20872,-6.38308 9.20872,-6.38308 v 0 c -1.6465,-0.35173 -3.30375,-0.68425 -4.78431,-1.53159 -1.95911,-1.08223 -3.89852,-2.22388 -5.61403,-3.67084 -1.27303,-1.16234 -2.46447,-2.42843 -3.46225,-3.838 -1.0253,-1.63416 -1.60498,-3.43314 -2.21727,-5.25353 -0.89444,-2.2544 -1.66861,-4.58781 -1.96951,-7.00297 0,0 -9.94148,5.2174 -9.94148,5.2174 z" />
    <path
       style="opacity:0.696582;fill:#aa0000;fill-opacity:0.699298;fill-rule:nonzero;stroke:#ff0000;stroke-width:0.264583;stroke-opacity:1"
       id="path3285-9-2"
       d="m 64.170025,157.45348 c -1.73293,1.81699 -3.41184,3.68871 -4.77238,5.80421 -0.9724,1.59683 -2.12604,3.06748 -3.21587,4.58305 -0.95959,1.15854 -1.86007,2.36008 -2.79955,3.53456 -0.62988,1.1122 -1.26293,2.1924 -2.07093,3.18906 -0.88741,0.99718 -1.70455,2.08786 -2.92806,2.6725 17.21408,-8.64143 9.87503,-5.60641 5.82964,-3.94496 -1.18053,0.58013 -2.42031,1.00627 -3.70965,1.25846 -0.90447,0.14623 -1.8165,0.13663 -2.72001,0.28688 -0.86785,0.16918 -1.74764,0.24172 -2.63041,0.25807 -0.65787,-0.15662 -0.33313,-0.0509 -0.97278,-0.32148 0,0 -9.3925,6.17947 -9.3925,6.17947 v 0 c 0.74438,0.42278 0.3635,0.22664 1.14279,0.58809 0.92103,0.31419 1.88744,0.18018 2.84617,0.0672 0.91051,-0.14881 1.7895,-0.35301 2.72278,-0.31188 1.36044,-0.14195 2.68563,-0.46255 3.93678,-1.02904 4.66575,-2.40617 9.37099,-1.73571 13.40893,-7.11516 1.04357,-0.89409 1.9488,-1.93837 2.78187,-3.02954 0.72881,-1.03461 1.29061,-2.17082 2.07223,-3.16777 0.91669,-1.1943 1.88441,-2.34841 2.7613,-3.57275 1.07305,-1.51498 2.18921,-2.99921 3.15446,-4.58801 1.45203,-2.04519 3.15027,-3.88903 4.91213,-5.67079 0,0 -10.35694,4.32983 -10.35694,4.32983 z" />
    <path
       style="opacity:0.699528;fill:#aa0000;fill-opacity:0.698369;fill-rule:nonzero;stroke:#ffaaaa;stroke-width:0.264583;stroke-opacity:1"
       id="path3283-2-1-7"
       d="m 119.45052,221.56369 c 0.5318,2.45839 1.25527,4.87551 2.17137,7.21766 0.59225,1.90417 1.22853,3.74829 2.27901,5.45128 1.02653,1.51897 2.29674,2.84788 3.6408,4.0859 1.75468,1.52813 3.7563,2.72236 5.76697,3.87678 1.51527,0.95458 3.20173,1.42221 4.92198,1.83099 0,0 9.20872,-6.38308 9.20872,-6.38308 v 0 c -1.6465,-0.35173 -3.30375,-0.68425 -4.78431,-1.53159 -1.95911,-1.08223 -3.89852,-2.22388 -5.61403,-3.67084 -1.27303,-1.16234 -2.46447,-2.42843 -3.46225,-3.838 -1.0253,-1.63416 -1.60498,-3.43314 -2.21727,-5.25353 -0.89444,-2.2544 -1.66861,-4.58781 -1.96951,-7.00297 0,0 -9.94148,5.2174 -9.94148,5.2174 z" />
    <path
       style="opacity:0.696582;fill:#aa0000;fill-opacity:0.699298;fill-rule:nonzero;stroke:#ff0000;stroke-width:0.264583;stroke-opacity:1"
       id="path3285-9-2-0"
       d="m 138.10429,220.58358 c -1.73293,1.81699 -3.41184,3.68871 -4.77238,5.80421 -0.9724,1.59683 -2.12604,3.06748 -3.21587,4.58305 -0.95959,1.15854 -1.86007,2.36008 -2.79955,3.53456 -0.62988,1.1122 -1.26293,2.1924 -2.07093,3.18906 -0.88741,0.99718 -1.70455,2.08786 -2.92806,2.6725 17.21408,-8.64143 9.87503,-5.60641 5.82964,-3.94496 -1.18053,0.58013 -2.42031,1.00627 -3.70965,1.25846 -0.90447,0.14623 -1.8165,0.13663 -2.72001,0.28688 -0.86785,0.16918 -1.74764,0.24172 -2.63041,0.25807 -0.65787,-0.15662 -0.33313,-0.0509 -0.97278,-0.32148 0,0 -9.3925,6.17947 -9.3925,6.17947 v 0 c 0.74438,0.42279 0.3635,0.22664 1.14279,0.58809 0.92103,0.31419 1.88744,0.18019 2.84617,0.0672 0.91051,-0.14881 1.7895,-0.35301 2.72278,-0.31188 1.36044,-0.14195 2.68563,-0.46255 3.93678,-1.02904 4.66575,-2.40617 9.37099,-1.73571 13.40893,-7.11516 1.04357,-0.89409 1.9488,-1.93837 2.78187,-3.02954 0.72881,-1.03461 1.29061,-2.17082 2.07223,-3.16777 0.91669,-1.1943 1.88441,-2.34841 2.7613,-3.57275 1.07305,-1.51498 2.18921,-2.99921 3.15446,-4.58801 1.45203,-2.04519 3.15027,-3.88903 4.91213,-5.67079 0,0 -10.35694,4.32983 -10.35694,4.32983 z" />
    <path
       style="opacity:0.699528;fill:#aa0000;fill-opacity:0.698369;fill-rule:nonzero;stroke:#ffaaaa;stroke-width:0.264583;stroke-opacity:1"
       id="path3283-2-1-7-1"
       d="m 98.034004,48.855453 c 0.5318,2.45839 1.25527,4.87551 2.171366,7.21766 0.59225,1.90417 1.22853,3.74829 2.27901,5.45128 1.02653,1.51897 2.29674,2.84788 3.6408,4.0859 1.75468,1.52813 3.7563,2.72236 5.76697,3.87678 1.51527,0.95457 3.20173,1.4222 4.92199,1.83099 0,0 9.20872,-6.38308 9.20872,-6.38308 v 0 c -1.6465,-0.35173 -3.30376,-0.68425 -4.78431,-1.53159 -1.95911,-1.08223 -3.89853,-2.22388 -5.61403,-3.67084 -1.27304,-1.16234 -2.46448,-2.42843 -3.46226,-3.838 -1.0253,-1.63416 -1.60498,-3.43314 -2.21727,-5.25353 -0.89444,-2.2544 -1.66861,-4.58781 -1.96951,-7.00297 0,0 -9.941476,5.2174 -9.941476,5.2174 z" />
    <path
       style="opacity:0.696582;fill:#aa0000;fill-opacity:0.699298;fill-rule:nonzero;stroke:#ff0000;stroke-width:0.264583;stroke-opacity:1"
       id="path3285-9-2-0-8"
       d="m 116.68778,47.875343 c -1.73294,1.81699 -3.41185,3.68871 -4.77239,5.80421 -0.9724,1.59683 -2.12604,3.06748 -3.21587,4.58305 -0.95959,1.15854 -1.86007,2.36008 -2.79955,3.53456 -0.62988,1.1122 -1.26293,2.1924 -2.07093,3.18906 -0.88741,0.99718 -1.70455,2.08786 -2.92806,2.6725 17.21409,-8.64143 9.87503,-5.60641 5.82964,-3.94496 -1.18053,0.58013 -2.42031,1.00627 -3.70965,1.25846 -0.90447,0.14623 -1.8165,0.13663 -2.72001,0.28688 -0.867846,0.16918 -1.747636,0.24172 -2.630406,0.25807 -0.65787,-0.15662 -0.33313,-0.0509 -0.97278,-0.32148 0,0 -9.3925,6.17947 -9.3925,6.17947 v 0 c 0.74438,0.42279 0.3635,0.22664 1.14279,0.58809 0.92103,0.31419 1.88744,0.18018 2.84617,0.0672 0.91051,-0.14882 1.7895,-0.35301 2.72278,-0.31188 1.36044,-0.14196 2.68563,-0.46255 3.93678,-1.02905 4.665746,-2.40617 9.370986,-1.73571 13.408926,-7.11516 1.04357,-0.89409 1.9488,-1.93837 2.78188,-3.02954 0.7288,-1.03461 1.2906,-2.17082 2.07223,-3.16777 0.91668,-1.1943 1.88441,-2.34841 2.7613,-3.57275 1.07305,-1.51498 2.18921,-2.99921 3.15446,-4.58801 1.45202,-2.04519 3.15027,-3.88903 4.91213,-5.67079 0,0 -10.35694,4.32983 -10.35694,4.32984 z" />
  </g>
</svg>
