<svg height="511pt" viewBox="0 0 511.9984 511" width="511pt" xmlns="http://www.w3.org/2000/svg"><g fill="#E47833" stroke="#E47833" ><path d="m95.726562 401.675781c16.871094 19.199219 39.90625 31.113281 64.867188 33.554688 30.160156 2.949219 60.425781-1.167969 90.613281-1.304688 28.96875-.132812 58 1 86.855469 3.578125-5.765625 5.253906-9.46875 11.773438-9.285156 19.8125.148437 6.539063 2.792968 12.800782 7.445312 17.628906l28.238282 29.304688c9.28125 9.632812 25.523437 11.074219 35.429687 1.53125l104.871094-101.050781c4.816406-4.644531 7.386719-10.976563 7.230469-17.832031-.148438-6.542969-2.792969-12.800782-7.445313-17.628907l-28.238281-29.308593c-9.554688-9.914063-24.839844-10.832032-34.601563-2.285157-13.304687-19.445312-30.886719-34.769531-51.457031-44.671875-25.046875-12.054687-52.75-15.179687-80.125-9.046875-26.789062 6.011719-57.238281 8.316407-93.074219 7.039063-24.632812-.875-53.832031-6.253906-73.511719 12.753906-2.105468 2.011719-4.074218 4.660156-5.59375 7.089844l-61.363281-60.71875c-12.742187-12.742188-34.3125-16.050782-52.453125-8.042969-15.832031 6.984375-24.835937 20.910156-24.0859372 37.246094.7187502 15.667969 12.8320312 28.777343 22.5625002 39.308593zm-58.25-96.785156c-7.5-8.113281-16.828124-18.210937-17.210937-26.5-.9375-20.484375 29.703125-26.25 42.035156-13.917969l69.269531 68.542969c-.027343 9.335937 3.027344 18.707031 9.246094 26.457031 9.859375 12.128906 30.988282 18.609375 64.59375 19.820313 23.109375.828125 43.53125-1.21875 44.390625-1.308594 12.933594-1.320313 10.894531-21.464844-2.054687-20.140625-.199219.019531-19.882813 2-41.609375 1.214844-36.785157-1.324219-46.949219-9.082032-49.570313-12.308594-6.710937-8.359375-6.199218-20.78125 1.167969-28.566406 14.46875-13.746094 40.890625-7.589844 58.597656-6.957032 37.59375 1.332032 69.722657-1.121093 98.222657-7.511718 43.808593-9.824219 87.105468 8.996094 112.3125 48.164062l-69.671876 67.179688c-44.671874-4.9375-89.9375-6.710938-134.820312-4.292969-19.042969 1.027344-40.621094 2.1875-59.8125.3125-19.824219-1.9375-38.160156-11.445313-51.625-26.765625zm453.234376 85.257813-104.871094 101.050781c-1.640625 1.582031-4.753906 1.125-6.800782-.996094l-28.238281-29.308594c-2.101562-2.222656-2.351562-4.5-.746093-6.832031l104.871093-101.050781c1.640625-1.582031 4.757813-1.125 6.800781.996093l28.242188 29.308594c2.101562 2.21875 2.347656 4.496094.742188 6.832032zm0 0"/><path d="m187.875 261.441406h123.96875c14.679688 0 26.621094-11.941406 26.621094-26.617187v-39.59375c0-13-20.246094-13.019531-20.246094 0v39.59375c0 3.515625-2.859375 6.371093-6.375 6.371093h-123.96875c-3.511719 0-6.371094-2.855468-6.371094-6.371093v-144.605469c0-3.511719 2.859375-6.371094 6.371094-6.371094h18.5625v20.667969c0 12.996094 20.246094 13.015625 20.246094 0v-20.667969h46.351562v20.667969c0 12.996094 20.25 13.015625 20.25 0v-20.667969h18.558594c3.515625 0 6.375 2.859375 6.375 6.371094v22.640625c0 12.996094 20.246094 13.015625 20.246094 0v-22.640625c0-14.675781-11.941406-26.617188-26.621094-26.617188h-18.558594v-19.679687c0-23.941406-19.480468-43.421875-43.425781-43.421875-23.941406 0-43.421875 19.480469-43.421875 43.421875v19.679687h-18.5625c-14.675781 0-26.617188 11.941407-26.617188 26.617188v144.605469c0 14.679687 11.941407 26.617187 26.617188 26.617187zm38.808594-217.519531c0-12.777344 10.398437-23.175781 23.179687-23.175781 12.777344 0 23.175781 10.398437 23.175781 23.175781v19.679687h-46.351562v-19.679687zm0 0"/><path d="m268.019531 155.300781h-36.316406c-13 0-13.015625 20.246094 0 20.246094h36.316406c12.996094 0 13.015625-20.246094 0-20.246094zm0 0"/><path d="m383.117188 166.515625h26.714843c13 0 13.015625-20.246094 0-20.246094h-26.714843c-12.996094 0-13.015626 20.246094 0 20.246094zm0 0"/><path d="m413.105469 207.648438-23.136719-13.359376c-11.253906-6.5-21.398438 11.027344-10.125 17.535157l23.136719 13.359375c11.160156 6.445312 21.445312-10.996094 10.125-17.535156zm0 0"/><path d="m384.917969 120.644531c1.714843 0 3.457031-.441406 5.050781-1.359375l23.136719-13.359375c11.257812-6.496093 1.148437-24.039062-10.125-17.53125l-23.136719 13.355469c-8.734375 5.042969-5.078125 18.894531 5.074219 18.894531zm0 0"/><path d="m93.902344 166.515625h26.714844c13 0 13.019531-20.246094 0-20.246094h-26.714844c-13 0-13.015625 20.246094 0 20.246094zm0 0"/><path d="m113.765625 194.289062-23.132813 13.359376c-11.277343 6.511718-1.089843 24.011718 10.121094 17.535156l23.136719-13.359375c11.257813-6.5 1.148437-24.039063-10.125-17.535157zm0 0"/><path d="m90.628906 105.925781 23.136719 13.355469c11.160156 6.441406 21.449219-10.996094 10.125-17.53125l-23.136719-13.359375c-11.257812-6.496094-21.398437 11.027344-10.125 17.535156zm0 0"/><path d="m299.667969 363.957031c-3.402344-8.542969-16.007813-7.933593-18.921875.613281-2.972656 8.71875 6.878906 16.671876 14.777344 11.9375 4.246093-2.542968 6.046874-7.988281 4.144531-12.550781zm0 0"/><path d="m333.957031 145.074219c-7.605469-5.070313-17.777343 2.238281-15.390625 11.042969 1.085938 4.019531 4.625 7.042968 8.78125 7.449218 4.480469.433594 8.808594-2.234375 10.433594-6.429687 1.691406-4.375.058594-9.453125-3.824219-12.0625zm0 0"/></g></svg>