<?xml version="1.0" encoding="UTF-8" standalone="no"?>
<svg
   xmlns:dc="http://purl.org/dc/elements/1.1/"
   xmlns:cc="http://creativecommons.org/ns#"
   xmlns:rdf="http://www.w3.org/1999/02/22-rdf-syntax-ns#"
   xmlns:svg="http://www.w3.org/2000/svg"
   xmlns="http://www.w3.org/2000/svg"
   xmlns:xlink="http://www.w3.org/1999/xlink"
   xmlns:sodipodi="http://sodipodi.sourceforge.net/DTD/sodipodi-0.dtd"
   xmlns:inkscape="http://www.inkscape.org/namespaces/inkscape"
   width="297mm"
   height="210mm"
   viewBox="0 0 297 210"
   version="1.1"
   id="svg8"
   sodipodi:docname="handshake.svg"
   inkscape:version="1.0.1 (3bc2e813f5, 2020-09-07)">
  <defs
     id="defs2">
    <linearGradient
       inkscape:collect="always"
       id="linearGradient878">
      <stop
         style="stop-color:#ffcc00;stop-opacity:1"
         offset="0"
         id="stop874" />
      <stop
         style="stop-color:#ff0000;stop-opacity:1"
         offset="1"
         id="stop876" />
    </linearGradient>
    <linearGradient
       inkscape:collect="always"
       id="linearGradient1572">
      <stop
         style="stop-color:#ffcc00;stop-opacity:1"
         offset="0"
         id="stop1568" />
      <stop
         style="stop-color:#ff0000;stop-opacity:1"
         offset="1"
         id="stop1570" />
    </linearGradient>
    <linearGradient
       inkscape:collect="always"
       xlink:href="#linearGradient1572"
       id="linearGradient1264"
       x1="31.750013"
       y1="34.395813"
       x2="158.75003"
       y2="153.45833"
       gradientUnits="userSpaceOnUse" />
    <linearGradient
       inkscape:collect="always"
       xlink:href="#linearGradient878"
       id="linearGradient880"
       x1="42.333332"
       y1="31.75"
       x2="280.45834"
       y2="201.08333"
       gradientUnits="userSpaceOnUse" />
  </defs>
  <sodipodi:namedview
     id="base"
     pagecolor="#ffffff"
     bordercolor="#666666"
     borderopacity="1.0"
     inkscape:pageopacity="0.0"
     inkscape:pageshadow="2"
     inkscape:zoom="0.67449387"
     inkscape:cx="513.78329"
     inkscape:cy="392.84683"
     inkscape:document-units="mm"
     inkscape:current-layer="layer1"
     inkscape:document-rotation="0"
     showgrid="true"
     inkscape:snap-midpoints="false"
     inkscape:window-width="1920"
     inkscape:window-height="1017"
     inkscape:window-x="1912"
     inkscape:window-y="-8"
     inkscape:window-maximized="1">
    <inkscape:grid
       type="xygrid"
       id="grid883" />
  </sodipodi:namedview>
  <metadata
     id="metadata5">
    <rdf:RDF>
      <cc:Work
         rdf:about="">
        <dc:format>image/svg+xml</dc:format>
        <dc:type
           rdf:resource="http://purl.org/dc/dcmitype/StillImage" />
        <dc:title></dc:title>
      </cc:Work>
    </rdf:RDF>
  </metadata>
  <g
     inkscape:label="Layer 1"
     inkscape:groupmode="layer"
     id="layer1">
    <path
       d="M 236.52238,75.907875 206.35002,36.713242 c -1.11678,-1.449616 -3.15367,-1.807208 -4.69818,-0.825208 l -19.48041,12.389125 h -25.40679 c -0.32871,0 -0.65604,0.07014 -0.97237,0.162288 L 136.09318,54.110002 115.65277,48.51922 95.79138,35.888034 C 94.273,34.92254 92.27325,35.249873 91.14409,36.649975 L 57.771297,77.987399 c -1.199303,1.485376 -1.001253,3.654298 0.445612,4.898986 L 75.70857,97.939557 91.40128,119.08689 c -4.58953,4.88936 -4.50014,12.60092 0.27507,17.3775 2.11666,2.11529 4.80821,3.31046 7.57678,3.58828 -0.0963,0.62716 -0.14578,1.26395 -0.14578,1.91036 0,3.33659 1.2997,6.47376 3.65842,8.83248 2.36009,2.3601 5.49726,3.65979 8.83385,3.65979 0.0454,0 0.0894,-0.003 0.13341,-0.004 -0.001,0.0853 -0.005,0.16917 -0.005,0.25444 0,3.33659 1.29971,6.47376 3.65843,8.83385 2.36009,2.35872 5.49726,3.65842 8.83385,3.65842 0.65879,0 1.3107,-0.0536 1.95024,-0.15266 0.27094,2.7782 1.46887,5.48213 3.59241,7.60567 2.43436,2.43574 5.63342,3.65292 8.83247,3.65292 3.19906,0 6.39812,-1.21718 8.83386,-3.65292 l 1.91035,-1.91036 0.80183,0.64641 c 2.41511,2.33947 5.5509,3.50851 8.68669,3.50851 3.19906,0 6.39812,-1.21718 8.83248,-3.65292 2.48525,-2.48525 3.70243,-5.76545 3.65154,-9.02915 3.26233,0.0495 6.54391,-1.16629 9.02916,-3.65017 2.4825,-2.48388 3.69968,-5.76133 3.65154,-9.02365 3.39849,0.0536 6.6223,-1.25156 9.02778,-3.65705 2.48525,-2.48525 3.70243,-5.76545 3.65155,-9.02915 3.26507,0.0495 6.5439,-1.1663 9.02915,-3.65154 4.24157,-4.24157 4.78758,-10.79785 1.64216,-15.6377 l 11.45802,-23.997047 17.22622,-14.82349 c 1.42348,-1.225431 1.64078,-3.348966 0.49512,-4.835718 z M 94.66085,43.547338 108.94245,52.628754 77.87474,90.478299 65.425102,79.762973 Z m 2.01488,80.248732 4.31034,-4.31033 c 0.13066,-0.13066 0.2682,-0.25444 0.40848,-0.36997 0.84309,-0.68768 1.86359,-1.09753 2.94462,-1.19518 0.0302,-0.003 0.0619,-0.003 0.0922,-0.004 0.15403,-0.0124 0.30807,-0.0206 0.46349,-0.0193 1.47712,0.0206 2.84972,0.62441 3.86748,1.69856 1.997,2.11115 1.88972,5.56053 -0.23931,7.68956 l -4.17969,4.17968 c -2.1139,2.11391 -5.55364,2.11391 -7.66755,0 -2.11391,-2.11528 -2.11391,-5.55503 0,-7.66893 z m 11.08942,22.00005 c -1.02463,-1.02326 -1.58852,-2.38485 -1.58852,-3.83309 0,-1.44824 0.56389,-2.80983 1.58852,-3.83447 l 8.35799,-8.35798 c 1.6009,-1.6009 4.11779,-2.03964 6.1643,-1.06452 2.10979,1.00538 3.29671,3.29534 2.98726,5.59904 -0.16505,1.22956 -0.73719,2.3876 -1.61466,3.26645 l -8.22595,8.22457 c -1.02463,1.02464 -2.38623,1.58853 -3.83447,1.58853 -1.44824,0 -2.80983,-0.56389 -3.83447,-1.58853 z m 12.62019,12.74259 c -1.02463,-1.02326 -1.58852,-2.38485 -1.58852,-3.83309 0,-1.44824 0.56389,-2.80984 1.58852,-3.83447 l 8.3566,-8.35798 c 1.71231,-1.71093 4.45888,-2.07953 6.55491,-0.85959 1.91448,1.11403 2.91711,3.30083 2.5884,5.47938 -0.18017,1.19793 -0.74956,2.32434 -1.6064,3.18118 l -8.22458,8.22457 c -1.02463,1.02464 -2.38623,1.58853 -3.83446,1.58853 -1.44824,0 -2.80984,-0.56389 -3.83447,-1.58853 z m 14.37512,11.1128 c -2.11391,-2.11391 -2.11391,-5.55365 0,-7.66755 l 4.31034,-4.31034 c 0.13066,-0.13066 0.26682,-0.25307 0.40711,-0.3686 0.004,-0.003 0.007,-0.005 0.01,-0.008 0.70142,-0.56939 1.52526,-0.95036 2.40411,-1.11678 0.0206,-0.003 0.0413,-0.006 0.0619,-0.008 0.15128,-0.0275 0.30532,-0.0495 0.45936,-0.0633 0.0619,-0.005 0.12378,-0.005 0.18705,-0.01 0.12653,-0.007 0.25169,-0.0151 0.37959,-0.0138 1.47575,0.0206 2.84972,0.62304 3.86748,1.69856 0.12515,0.13203 0.24206,0.26956 0.34934,0.41123 1.62566,2.1249 1.40698,5.28133 -0.61066,7.30034 l -4.15767,4.15767 c -2.11391,2.11391 -5.55365,2.11253 -7.66756,-0.001 z m 65.94101,-39.44907 c -2.11391,2.11528 -5.55365,2.11391 -7.66756,0 -0.077,-0.077 -0.15816,-0.14854 -0.24068,-0.21593 l -22.72898,-22.96829 c -1.37397,-1.38773 -3.61166,-1.39873 -4.99939,-0.0248 -1.38772,1.37259 -1.39873,3.61028 -0.0261,4.99801 l 22.97518,23.21448 c 0.003,0.003 0.006,0.005 0.008,0.008 2.11391,2.11391 2.11391,5.55502 0,7.66893 -1.02463,1.02463 -2.38623,1.58853 -3.83446,1.58853 -1.44962,0 -2.81121,-0.5639 -3.83447,-1.58853 l -15.3695,-15.52904 c -1.3726,-1.38773 -3.61029,-1.39873 -4.99801,-0.0261 -1.38773,1.37397 -1.39873,3.61166 -0.0261,4.99939 l 15.13432,15.2911 c 0.077,0.0963 0.15954,0.18842 0.24756,0.27644 2.11391,2.11391 2.11391,5.55503 0,7.66894 -2.11528,2.11391 -5.5564,2.11253 -7.6703,-0.001 l -8.38825,-8.47626 c -1.37397,-1.38773 -3.61166,-1.40011 -4.99939,-0.0261 -1.38772,1.37259 -1.39872,3.61028 -0.0261,4.99801 l 8.15443,8.23833 c 0.077,0.0963 0.15954,0.1898 0.24894,0.27782 2.11391,2.11391 2.11391,5.55502 0,7.66893 -2.11391,2.11529 -5.55365,2.11391 -7.66756,0 -0.24343,-0.24343 -0.5295,-0.43048 -0.80182,-0.63953 -0.23106,-0.17605 -0.29158,-0.29845 -0.17605,-0.57903 0.11691,-0.28469 0.29157,-0.54188 0.40848,-0.82795 0.12928,-0.31908 0.23381,-0.64779 0.33558,-0.97788 0.54189,-1.74668 0.70143,-3.62541 0.45799,-5.43812 -0.46761,-3.47825 -2.38072,-6.61679 -5.27995,-8.60279 -1.56652,-1.0714 -3.37923,-1.7742 -5.25795,-2.03826 0.91047,-4.01602 -0.18293,-8.37037 -3.02714,-11.3755 -2.34084,-2.47287 -5.50277,-3.8606 -8.904,-3.90736 -0.12378,-10e-4 -0.24756,-10e-4 -0.37272,0 0.0757,-3.24581 -1.1044,-6.471 -3.34209,-8.83522 -2.34222,-2.47288 -5.50414,-3.86061 -8.904,-3.90737 -1.01087,-0.0138 -2.03138,0.0935 -3.01613,0.32046 -0.42086,-2.92811 -1.8966,-5.63755 -4.13154,-7.57541 -2.22119,-1.92274 -5.01452,-2.99001 -7.98939,-3.03126 -3.13167,-0.0454 -6.20832,1.1099 -8.53403,3.21005 l -13.6639,-18.412042 32.68924,-39.824546 10.41826,2.849719 -13.60631,24.009431 c -1.64492,2.903355 -2.06027,6.272953 -1.17042,9.488519 0.88985,3.216931 2.97762,5.893361 5.88098,7.538273 0.18155,0.103151 0.36447,0.2008 0.55014,0.294325 0.0138,0.0069 0.0275,0.01376 0.0426,0.02064 0.48825,0.24344 0.99025,0.45249 1.49913,0.62853 2.36972,0.82108 4.92924,0.91048 7.39799,0.22831 3.21556,-0.889851 5.89199,-2.979001 7.5369,-5.880982 L 142.875,79.375 l 15.78761,1.119529 42.04023,42.038851 c 2.11253,2.11528 2.11253,5.55502 -0.001,7.66893 z m 1.46475,-16.20296 -39.43808,-39.436691 c -0.0743,-0.07565 -0.15266,-0.147164 -0.2338,-0.214556 -0.56802,-0.47312 -1.2722,-0.759193 -2.01489,-0.811456 l -19.3305,-1.371222 c -1.33684,-0.09215 -2.66542,0.618908 -3.32559,1.783826 l -9.94101,17.543923 c -0.7138,1.259819 -1.87597,2.166173 -3.27195,2.552645 -1.3946,0.386474 -2.85797,0.20493 -4.11916,-0.508879 -1.25982,-0.713803 -2.16617,-1.87597 -2.55264,-3.271948 -0.38648,-1.395976 -0.20631,-2.859347 0.50888,-4.119166 l 13.27071,-23.420782 5.37761,-1.547264 c 0.0358,-0.01099 0.0701,-0.02475 0.1059,-0.03576 l 20.07044,-5.795712 h 24.25012 l 30.27413,38.484955 z m 14.26097,-25.716233 -27.99656,-35.609105 14.28847,-9.086919 26.16048,33.980695 z m 0,0"
       id="path2"
       style="stroke-width:0.352089;fill:url(#linearGradient880);fill-opacity:1" />
  </g>
</svg>
