<?xml version="1.0" encoding="UTF-8" standalone="no"?>
<svg id="svg4149" xmlns:rdf="http://www.w3.org/1999/02/22-rdf-syntax-ns#" xmlns="http://www.w3.org/2000/svg" height="720pt" width="1200pt" version="1.1" xmlns:cc="http://creativecommons.org/ns#" xmlns:dc="http://purl.org/dc/elements/1.1/" viewBox="0 0 1200 720">
<defs id="defs4157">
<pattern id="pattern4706" width="150" patternUnits="userSpaceOnUse" patternTransform="matrix(.8 0 0 .8 0 600)" height="150">
<path id="path4151" d="m0.070547 0v0.0705l-0.070547-0.0705v115.5c11.862-19.989 22.752-41.196 39.631-57.539 0.048-0.0063 0.14559-0.0165 0.19359-0.0225 2.508-2.5845 5.4194-4.8029 8.4014-6.8114 2.0805-1.497 4.353-2.6909 6.603-3.9089 11.444-5.7915 24.512-6.7157 36.309-11.54 0.0825-0.0405 0.16631-0.07937 0.25031-0.11838 0.699-0.3585 1.4372-0.633 2.1647-0.93 0.1845-0.1005 0.369-0.20105 0.555-0.30305 0.837-0.3525 1.6409-0.77695 2.4359-1.2194 0.1845-0.0825 0.369-0.165 0.555-0.2475 1.533-0.867 3.0151-1.818 4.5211-2.727 2.478-1.755 4.8795-3.6151 7.218-5.5486 2.0355-2.0175 4.2268-3.9105 6.0853-6.102-15.308 0.318-28.378-9.5145-39.8-18.483zm121.19 45.813c-7.266 9.1785-15.798 17.75-26.459 22.89-12.639 6.297-27.309 6.7695-39.896 13.203-12.862 6.369-22.552 17.445-30.745 28.957-7.36 11.54-15.76 27.14-24.16 39.14h75.12c-10.31-7.818-20.938-16.329-34.05-18.594 2.4615-1.5825 4.6124-3.7531 7.1564-5.2786 2.0805-1.497 4.353-2.6909 6.603-3.9089 11.444-5.7915 24.512-6.7157 36.309-11.54 0.0825-0.0405 0.16631-0.0809 0.25031-0.11837 0.699-0.3585 1.4372-0.633 2.1647-0.93 0.1845-0.1005 0.369-0.20105 0.555-0.30305 0.837-0.3525 1.6409-0.77695 2.4359-1.2194 0.1845-0.0825 0.369-0.165 0.555-0.2475 1.533-0.867 3.0151-1.818 4.5211-2.727 2.478-1.755 4.8795-3.6151 7.218-5.5486 7.8435-7.167 14.475-15.566 20.346-24.401 7.5225-11.138 14.094-22.88 20.816-34.508v-40.68s-18.885 32.922-28.737 45.813z"/>
</pattern>
</defs>
<rect id="rect4704" height="720" width="1200" y="0" x="0" fill="url(#pattern4706)"/>
</svg>
