<?xml version="1.0" encoding="UTF-8" standalone="no"?>
<svg
   xmlns:dc="http://purl.org/dc/elements/1.1/"
   xmlns:cc="http://creativecommons.org/ns#"
   xmlns:rdf="http://www.w3.org/1999/02/22-rdf-syntax-ns#"
   xmlns:svg="http://www.w3.org/2000/svg"
   xmlns="http://www.w3.org/2000/svg"
   xmlns:xlink="http://www.w3.org/1999/xlink"
   xmlns:sodipodi="http://sodipodi.sourceforge.net/DTD/sodipodi-0.dtd"
   xmlns:inkscape="http://www.inkscape.org/namespaces/inkscape"
   width="297mm"
   height="210mm"
   viewBox="0 0 297 210"
   version="1.1"
   id="svg8"
   sodipodi:docname="Offline.svg"
   inkscape:version="1.0.1 (3bc2e813f5, 2020-09-07)">
  <defs
     id="defs2">
    <linearGradient
       inkscape:collect="always"
       id="linearGradient1572">
      <stop
         style="stop-color:#ffcc00;stop-opacity:1"
         offset="0"
         id="stop1568" />
      <stop
         style="stop-color:#ff0000;stop-opacity:1"
         offset="1"
         id="stop1570" />
    </linearGradient>
    <linearGradient
       inkscape:collect="always"
       xlink:href="#linearGradient1572"
       id="linearGradient1566"
       x1="1.3865595"
       y1="1.4478559"
       x2="178.96513"
       y2="188.14914"
       gradientUnits="userSpaceOnUse" />
    <linearGradient
       inkscape:collect="always"
       xlink:href="#linearGradient1572"
       id="linearGradient1264"
       x1="31.750013"
       y1="34.395813"
       x2="158.75003"
       y2="153.45833"
       gradientUnits="userSpaceOnUse" />
  </defs>
  <sodipodi:namedview
     id="base"
     pagecolor="#ffffff"
     bordercolor="#666666"
     borderopacity="1.0"
     inkscape:pageopacity="0.0"
     inkscape:pageshadow="2"
     inkscape:zoom="0.47693919"
     inkscape:cx="661.05042"
     inkscape:cy="331.70219"
     inkscape:document-units="mm"
     inkscape:current-layer="g1056"
     inkscape:document-rotation="0"
     showgrid="true"
     inkscape:snap-midpoints="false"
     inkscape:window-width="1920"
     inkscape:window-height="1017"
     inkscape:window-x="3832"
     inkscape:window-y="-8"
     inkscape:window-maximized="1">
    <inkscape:grid
       type="axonomgrid"
       id="grid918"
       gridanglex="45"
       gridanglez="45" />
  </sodipodi:namedview>
  <metadata
     id="metadata5">
    <rdf:RDF>
      <cc:Work
         rdf:about="">
        <dc:format>image/svg+xml</dc:format>
        <dc:type
           rdf:resource="http://purl.org/dc/dcmitype/StillImage" />
        <dc:title></dc:title>
      </cc:Work>
    </rdf:RDF>
  </metadata>
  <g
     inkscape:label="Layer 1"
     inkscape:groupmode="layer"
     id="layer1">
    <g
       id="g1001"
       transform="matrix(0.91215064,0,0,0.91215064,50.251309,6.2984929)"
       style="fill:#ff6019;fill-opacity:1">
      <path
         d="M 107.728,0.001 C 48.325,0.001 0,48.329 0,107.732 c 0.005,59.397 48.332,107.722 107.728,107.722 59.401,0 107.728,-48.324 107.728,-107.723 C 215.455,48.329 167.129,0.001 107.728,0.001 Z m 0,15 c 22.021,0 42.269,7.721 58.192,20.592 L 35.593,165.919 C 22.724,149.997 15.002,129.75 15,107.731 15,56.6 56.598,15.001 107.728,15.001 Z m 0,185.453 c -23.718,0 -45.381,-8.956 -61.797,-23.658 L 176.796,45.931 c 14.703,16.416 23.659,38.081 23.659,61.801 0,51.127 -41.598,92.722 -92.727,92.722 z"
         id="path946"
         style="opacity:1;fill:url(#linearGradient1566);fill-opacity:1" />
      <g
         id="g948"
         style="fill:#ff6019;fill-opacity:1" />
      <g
         id="g950"
         style="fill:#ff6019;fill-opacity:1" />
      <g
         id="g952"
         style="fill:#ff6019;fill-opacity:1" />
      <g
         id="g954"
         style="fill:#ff6019;fill-opacity:1" />
      <g
         id="g956"
         style="fill:#ff6019;fill-opacity:1" />
      <g
         id="g958"
         style="fill:#ff6019;fill-opacity:1" />
      <g
         id="g960"
         style="fill:#ff6019;fill-opacity:1" />
      <g
         id="g962"
         style="fill:#ff6019;fill-opacity:1" />
      <g
         id="g964"
         style="fill:#ff6019;fill-opacity:1" />
      <g
         id="g966"
         style="fill:#ff6019;fill-opacity:1" />
      <g
         id="g968"
         style="fill:#ff6019;fill-opacity:1" />
      <g
         id="g970"
         style="fill:#ff6019;fill-opacity:1" />
      <g
         id="g972"
         style="fill:#ff6019;fill-opacity:1" />
      <g
         id="g974"
         style="fill:#ff6019;fill-opacity:1" />
      <g
         id="g976"
         style="fill:#ff6019;fill-opacity:1" />
    </g>
    <g
       id="g1056"
       transform="matrix(1.6923339,0,0,1.6923339,519.81024,106.64737)"
       style="display:inline;fill:#cfcbc4;fill-opacity:1">
      <g
         id="g1039"
         transform="matrix(1.1889026,0,0,1.1889026,431.42892,16.043317)">
        <path
           id="path891-5-6"
           style="display:inline;fill:#cfcbc4;fill-opacity:1;stroke:#d40536;stroke-width:0;stroke-opacity:0.39759"
           d="m -1539.7559,149.33789 a 334.31689,334.31689 0 0 0 -216.0058,79.15234 l 32.6094,32.60938 a 288.38209,288.38209 0 0 1 183.3925,-65.82813 288.38209,288.38209 0 0 1 182.9571,65.46875 l 32.6152,-32.61523 a 334.31689,334.31689 0 0 0 -215.5684,-78.78711 z"
           transform="matrix(0.15634228,0,0,0.15634228,-307.15584,-63.017925)" />
        <path
           id="path891-9"
           style="display:inline;fill:#cfcbc4;fill-opacity:1;stroke:#d40536;stroke-width:0;stroke-opacity:0.39759"
           d="m -1540,240 a 243.65614,243.65614 0 0 0 -151.3496,52.90234 l 33.6016,33.60157 a 196.51256,196.51256 0 0 1 117.539,-39.36329 196.51256,196.51256 0 0 1 0.4492,0 196.51256,196.51256 0 0 1 117.5332,39.02344 l 33.6172,-33.61718 A 243.65614,243.65614 0 0 0 -1539.7598,240 243.65614,243.65614 0 0 0 -1540,240 Z"
           transform="matrix(0.15634228,0,0,0.15634228,-307.15584,-63.017925)" />
        <path
           id="path893"
           style="fill:#cfcbc4;fill-opacity:1;stroke:#d40536;stroke-width:0;stroke-opacity:0.39759"
           d="m -1539.7598,327.0332 a 156.62179,156.62179 0 0 0 -89.4199,28.03907 l 33.2246,33.22265 a 110.68701,110.68701 0 0 1 56.1133,-15.32812 110.68701,110.68701 0 0 1 0.082,0 110.68701,110.68701 0 0 1 55.6953,15.0332 l 33.254,-33.25391 a 156.62179,156.62179 0 0 0 -88.9493,-27.71289 z"
           transform="matrix(0.15634228,0,0,0.15634228,-307.15584,-63.017925)" />
        <circle
           style="fill:#cfcbc4;fill-opacity:1;stroke:#d40536;stroke-width:0;stroke-opacity:0.39759"
           id="path897"
           cx="-547.94293"
           cy="6.6266241"
           clip-path="none"
           r="4.5025568" />
      </g>
    </g>
  </g>
</svg>
