<?xml version="1.0" encoding="UTF-8" standalone="no"?>
<svg
   xmlns:dc="http://purl.org/dc/elements/1.1/"
   xmlns:cc="http://creativecommons.org/ns#"
   xmlns:rdf="http://www.w3.org/1999/02/22-rdf-syntax-ns#"
   xmlns:svg="http://www.w3.org/2000/svg"
   xmlns="http://www.w3.org/2000/svg"
   xmlns:xlink="http://www.w3.org/1999/xlink"
   xmlns:sodipodi="http://sodipodi.sourceforge.net/DTD/sodipodi-0.dtd"
   xmlns:inkscape="http://www.inkscape.org/namespaces/inkscape"
   version="1.1"
   id="svg941"
   width="400"
   height="246"
   viewBox="0 0 400 246"
   sodipodi:docname="wind.svg"
   inkscape:version="1.0.1 (3bc2e813f5, 2020-09-07)">
  <metadata
     id="metadata947">
    <rdf:RDF>
      <cc:Work
         rdf:about="">
        <dc:format>image/svg+xml</dc:format>
        <dc:type
           rdf:resource="http://purl.org/dc/dcmitype/StillImage" />
        <dc:title></dc:title>
      </cc:Work>
    </rdf:RDF>
  </metadata>
  <defs
     id="defs945">
    <linearGradient
       inkscape:collect="always"
       id="linearGradient1799">
      <stop
         style="stop-color:#ffbc00;stop-opacity:0.73727932"
         offset="0"
         id="stop1795" />
      <stop
         style="stop-color:#ff2f00;stop-opacity:0.97685737"
         offset="1"
         id="stop1797" />
    </linearGradient>
    <linearGradient
       inkscape:collect="always"
       xlink:href="#linearGradient1799"
       id="linearGradient1801"
       x1="10.654508"
       y1="124.25978"
       x2="373.26122"
       y2="124.25978"
       gradientUnits="userSpaceOnUse" />
  </defs>
  <sodipodi:namedview
     pagecolor="#ffffff"
     bordercolor="#666666"
     borderopacity="1"
     objecttolerance="10"
     gridtolerance="10"
     guidetolerance="10"
     inkscape:pageopacity="0"
     inkscape:pageshadow="2"
     inkscape:window-width="1920"
     inkscape:window-height="1059"
     id="namedview943"
     showgrid="false"
     inkscape:zoom="3.1275"
     inkscape:cx="200.43192"
     inkscape:cy="123"
     inkscape:window-x="0"
     inkscape:window-y="21"
     inkscape:window-maximized="0"
     inkscape:current-layer="g949" />
  <g
     inkscape:groupmode="layer"
     inkscape:label="Image"
     id="g949">
    <path
       style="opacity:1;mix-blend-mode:normal;fill:url(#linearGradient1801);fill-opacity:1;stroke:none;stroke-width:0.913;stroke-miterlimit:4;stroke-dasharray:none"
       d="m 281.64534,12.121448 c 17.0893,22.306228 52.88454,36.022676 56.34514,67.678662 1.5353,14.042364 -11.30259,26.25809 -20.4467,34.90322 -2.64901,2.50431 -9.11821,9.12704 -13.2661,6.50684 -4.18885,-2.64573 2.72055,-16.27878 3.51331,-20.15068 2.43069,-11.866249 -1.66659,-25.559712 -11.35301,-33.000189 2.41546,5.191735 4.76259,9.757428 5.36661,15.583394 3.93321,37.922365 -34.86115,43.818255 -63.1914,47.168535 -32.30561,3.82068 -65.44867,7.02647 -98.05362,4.92281 -43.063473,-2.77805 -86.757726,-9.2487 -129.905062,-9.40686 3.369802,4.83385 13.621164,4.97484 19.098418,5.94806 17.820965,3.1638 35.68645,6.08041 53.618983,8.52017 46.897041,6.38308 94.485831,11.17082 141.696481,6.40421 13.34029,-1.34625 26.78399,-2.32938 39.93263,-5.22916 15.10905,-3.33316 30.61942,-8.80843 46.27743,-7.79121 15.60439,1.01196 33.6202,8.67195 42.97532,21.75117 8.45745,11.82282 9.3754,34.7962 -3.65378,43.98935 -14.70999,10.37904 -39.22501,4.11119 -42.28215,-15.31083 -1.26273,-8.02148 4.75552,-15.91374 7.63009,-22.98967 -18.45336,8.80822 -20.90682,34.9669 -5.22238,47.41041 13.26253,10.52126 36.00325,8.1218 49.02399,-1.51477 21.66594,-16.03265 15.69249,-56.01953 -6.67397,-68.29026 -6.98963,-3.83443 -28.51803,-5.49983 -31.47846,-13.60974 -1.46181,-4.00547 4.35833,-8.45003 6.84499,-10.72038 7.85604,-7.17187 17.06497,-11.87659 19.39919,-23.204699 6.01366,-29.173366 -20.8901,-46.346558 -40.68242,-61.209018 -8.34962,-6.269868 -16.6318,-12.874767 -25.51353,-18.359365 m -166.75795,71.481083 0.9081,-0.0043 c -2.70458,-7.970545 -5.76327,-15.346942 -3.60286,-23.855056 2.54381,-10.017705 6.61463,-21.479493 15.16934,-27.809943 14.78273,-10.939296 37.30951,-3.729782 45.82143,13.118192 4.41179,8.733132 2.88313,18.08839 0.53693,27.256885 -1.95916,7.657877 -5.61214,15.662508 -10.18886,22.08353 -5.71347,8.014961 -13.67706,13.942131 -23.08757,16.717841 -18.93617,5.58593 -39.13565,3.79952 -58.079841,8.45356 6.295378,2.63583 15.914371,0.8434 22.706761,0.81149 21.42929,-0.10066 46.86259,0.0149 63.47952,-15.99217 18.56872,-17.887452 26.29985,-56.871819 5.99953,-76.063738 -14.37395,-13.590432 -42.08827,-16.56954 -56.01965,-0.703955 -13.07778,14.893457 -13.32805,39.328247 -3.64283,55.98763 m 103.57491,10.53132 0.9081,-0.0043 c -8.63844,-22.324252 8.65981,-56.646739 34.29858,-36.953793 15.98515,12.278205 6.04587,40.71189 -6.98832,51.157886 -12.305,9.85999 -34.7463,11.42986 -49.88333,13.44653 5.25654,2.20092 11.76234,0.46994 17.25423,-0.002 15.03237,-1.29268 33.06408,-2.62056 44.2639,-14.21893 12.79128,-13.247065 16.66068,-41.298012 2.54972,-54.771365 -13.57549,-12.961704 -37.96248,-10.145028 -45.90061,7.390787 -4.83011,10.670051 -2.149,24.277614 3.49773,33.95523 m -151.238333,88.853058 0.908098,-0.004 C 78.021088,164.84426 98.76407,159.93846 117.96963,159.795 l -0.009,-1.83627 C 99.688355,155.70878 68.260552,157.4448 67.223587,182.98719 m 142.472183,-21.78675 0.004,0.91814 c 28.04207,-0.13172 59.83818,-1.83275 71.2482,29.96438 2.91232,8.11657 5.10122,19.20768 -0.50696,26.62882 -16.44822,21.76495 -38.84582,6.34603 -44.42937,-15.39991 -1.35333,-5.27027 0.40806,-10.37429 1.05182,-15.61354 -18.08241,25.91258 15.16593,61.74801 41.97967,43.90538 21.99036,-14.63306 12.98594,-52.81073 -6.6659,-65.60378 -17.37001,-11.3081 -43.27738,-7.37148 -62.68177,-4.79949 M 107.2536,198.40752 c 10.28408,-4.90809 16.23085,-16.03191 27.14558,-20.85206 25.2614,-11.15486 49.34578,-3.37921 75.35735,-3.50139 -5.10155,-5.16452 -13.28901,-7.45634 -20.02417,-9.69989 -29.9175,-9.96282 -71.70318,1.35136 -82.47876,34.05334 z"
       id="path973"
       sodipodi:nodetypes="ccccccccccccccccsccccccccsccccccccccsccscccccccccsccccccccccccsccccccc" />
  </g>
</svg>
